<?xml version="1.0" standalone="no"?>
<!DOCTYPE svg PUBLIC "-//W3C//DTD SVG 20010904//EN"
 "http://www.w3.org/TR/2001/REC-SVG-20010904/DTD/svg10.dtd">
<svg version="1.0" xmlns="http://www.w3.org/2000/svg"
 width="300.000000pt" height="300.000000pt" viewBox="0 0 300.000000 300.000000"
 preserveAspectRatio="xMidYMid meet">
<metadata>
Created by potrace 1.11, written by Peter Selinger 2001-2013
</metadata>
<g transform="translate(0.000000,300.000000) scale(0.100000,-0.100000)"
fill="#000000" stroke="none">
<path d="M1265 2934 c-475 -79 -872 -373 -1085 -803 -57 -116 -95 -225 -119
-346 -23 -115 -25 -142 -25 -305 -1 -181 18 -303 70 -458 27 -84 121 -285 135
-290 5 -2 9 -8 9 -14 0 -10 76 -121 115 -167 11 -13 54 -59 96 -102 l75 -79
95 5 c145 7 301 20 379 30 19 3 53 7 75 10 22 3 51 7 65 10 14 3 39 7 55 9 90
12 290 74 381 118 71 34 135 84 181 141 19 24 41 110 37 147 -10 93 -30 136
-89 195 -68 67 -171 113 -385 175 -294 84 -388 142 -419 256 -22 82 11 186 77
246 35 32 142 94 142 83 0 -3 12 0 27 6 15 5 97 12 183 15 l155 4 -65 -20
c-36 -11 -73 -22 -83 -25 -31 -7 -132 -65 -160 -91 -39 -36 -54 -63 -65 -112
-9 -39 -8 -46 16 -74 33 -39 140 -83 256 -104 16 -2 32 -7 36 -9 4 -2 20 -7
36 -9 58 -11 74 -15 82 -20 5 -3 22 -8 38 -10 16 -3 58 -14 94 -25 408 -119
601 -324 604 -641 1 -94 -17 -169 -62 -256 -41 -80 -146 -205 -233 -276 -23
-18 -50 -41 -61 -50 -12 -10 -26 -18 -31 -18 -6 0 -8 -3 -4 -6 8 -9 137 36
137 47 0 6 4 7 10 4 13 -8 92 29 83 40 -5 4 -2 5 4 1 11 -6 136 54 153 73 3 3
17 13 32 21 52 29 198 151 192 161 -3 5 0 8 6 7 10 -2 129 124 169 177 88 120
210 353 196 376 -4 5 -2 9 3 9 8 0 24 44 38 99 2 9 8 34 13 56 11 44 20 91 28
145 9 56 9 330 0 390 -48 332 -185 609 -417 840 -186 186 -404 312 -660 384
-164 45 -442 59 -615 30z"/>
</g>
</svg>
